<svg xmlns="http://www.w3.org/2000/svg" width="341" height="341" style="shape-rendering:geometricPrecision;text-rendering:geometricPrecision;image-rendering:optimizeQuality;fill-rule:evenodd;clip-rule:evenodd"><path fill="#5f8494" d="M-.5-.5h341v341h-164v-13h39v-13h13v-13h13v-13h13v-78h13v-52h-13v-39h-13v-13h-13v-13h-91v13h-13v13h-13v65h-13v26h-13v13h13v13h13v104H-.5V-.5Z" style="opacity:1"/><path d="M228.5 106.5h-91v-13h91v13ZM137.5 106.5v13h-13v-13h13Z" style="opacity:1"/><path fill="#75a36c" d="M137.5 106.5h91v13h-91v-13Z" style="opacity:1"/><path d="M228.5 106.5h13v13h-13v-13ZM124.5 119.5v39h13v13h-13v26h-13v13h-13v-26h13v-65h13Z" style="opacity:1"/><path fill="#fefffe" d="M124.5 119.5h117v13h-117v-13Z" style="opacity:1"/><path d="M241.5 119.5h13v39h-117v-13h104v-26Z" style="opacity:1"/><path fill="#1d68d1" d="M124.5 132.5h117v13h-117v-13Z" style="opacity:1"/><path fill="#75a36c" d="M124.5 145.5h13v13h-13v-13Z" style="opacity:1"/><path fill="#8c8d8c" d="M137.5 158.5h13v13h-13v-13Z" style="opacity:1"/><path fill="#b3b4b3" d="M150.5 158.5h91v13h-91v-13Z" style="opacity:1"/><path fill="#8c8d8c" d="M241.5 158.5h13v13h-13v-13Z" style="opacity:1"/><path d="M254.5 158.5h13v52h-13v-52Z" style="opacity:1"/><path fill="#8c8d8c" d="M137.5 171.5v26h-13v-26h13Z" style="opacity:1"/><path fill="#b3b4b3" d="M137.5 171.5h13v26h-13v-26Z" style="opacity:1"/><path d="M150.5 171.5h91v26h-91v-26Z" style="opacity:1"/><path fill="#b3b4b3" d="M241.5 171.5h13v26h-13v-26Z" style="opacity:1"/><path fill="#75a36c" d="M124.5 197.5v13h-13v-13h13Z" style="opacity:1"/><path d="M124.5 197.5h13v13h-13v-13Z" style="opacity:1"/><path fill="#8c8d8c" d="M137.5 197.5h13v13h-13v-13Z" style="opacity:1"/><path fill="#b3b4b3" d="M150.5 197.5h91v13h-91v-13Z" style="opacity:1"/><path fill="#8c8d8c" d="M241.5 197.5h13v13h-13v-13Z" style="opacity:1"/><path d="M98.5 210.5v13h-13v-13h13Z" style="opacity:1"/><path fill="#fedc44" d="M98.5 210.5h13v13h-13v-13Z" style="opacity:1"/><path d="M111.5 210.5h13v130h-13v-104h-13v-13h13v-13Z" style="opacity:1"/><path fill="#75a36c" d="M124.5 210.5h13v13h52v13h26v-13h26v65h-13v-39h-65v39h13v13h-13v39h-39v-130Z" style="opacity:1"/><path d="M137.5 210.5h117v78h-13v-65h-26v13h-26v-13h-52v-13Z" style="opacity:1"/><path fill="#a97033" d="M228.5 288.5h-13v26h-39v-26h-13v-39h65v39Z" style="opacity:1"/><path d="M176.5 262.5h39v13h-39v-13Z" style="opacity:1"/><path fill="#75a36c" d="M228.5 288.5v13h-13v-13h13Z" style="opacity:1"/><path d="M228.5 288.5h13v13h-13v-13ZM176.5 301.5v13h39v13h-39v13h-13v-39h13ZM215.5 301.5h13v13h-13v-13Z" style="opacity:1"/></svg>