<?xml version="1.0" encoding="UTF-8"?>
<!DOCTYPE svg PUBLIC "-//W3C//DTD SVG 1.1//EN" "http://www.w3.org/Graphics/SVG/1.1/DTD/svg11.dtd">
<svg xmlns="http://www.w3.org/2000/svg" version="1.1" width="341px" height="341px" style="shape-rendering:geometricPrecision; text-rendering:geometricPrecision; image-rendering:optimizeQuality; fill-rule:evenodd; clip-rule:evenodd" xmlns:xlink="http://www.w3.org/1999/xlink">
<g><path style="opacity:1" fill="#5f8494" d="M -0.5,-0.5 C 113.167,-0.5 226.833,-0.5 340.5,-0.5C 340.5,113.167 340.5,226.833 340.5,340.5C 285.833,340.5 231.167,340.5 176.5,340.5C 176.5,336.167 176.5,331.833 176.5,327.5C 189.5,327.5 202.5,327.5 215.5,327.5C 215.5,323.167 215.5,318.833 215.5,314.5C 219.833,314.5 224.167,314.5 228.5,314.5C 228.5,310.167 228.5,305.833 228.5,301.5C 232.833,301.5 237.167,301.5 241.5,301.5C 241.5,297.167 241.5,292.833 241.5,288.5C 245.833,288.5 250.167,288.5 254.5,288.5C 254.5,262.5 254.5,236.5 254.5,210.5C 258.833,210.5 263.167,210.5 267.5,210.5C 267.5,193.167 267.5,175.833 267.5,158.5C 263.167,158.5 258.833,158.5 254.5,158.5C 254.5,145.5 254.5,132.5 254.5,119.5C 250.167,119.5 245.833,119.5 241.5,119.5C 241.5,115.167 241.5,110.833 241.5,106.5C 237.167,106.5 232.833,106.5 228.5,106.5C 228.5,102.167 228.5,97.8333 228.5,93.5C 198.167,93.5 167.833,93.5 137.5,93.5C 137.5,97.8333 137.5,102.167 137.5,106.5C 133.167,106.5 128.833,106.5 124.5,106.5C 124.5,110.833 124.5,115.167 124.5,119.5C 120.167,119.5 115.833,119.5 111.5,119.5C 111.5,141.167 111.5,162.833 111.5,184.5C 107.167,184.5 102.833,184.5 98.5,184.5C 98.5,193.167 98.5,201.833 98.5,210.5C 94.1667,210.5 89.8333,210.5 85.5,210.5C 85.5,214.833 85.5,219.167 85.5,223.5C 89.8333,223.5 94.1667,223.5 98.5,223.5C 98.5,227.833 98.5,232.167 98.5,236.5C 102.833,236.5 107.167,236.5 111.5,236.5C 111.5,271.167 111.5,305.833 111.5,340.5C 74.1667,340.5 36.8333,340.5 -0.5,340.5C -0.5,226.833 -0.5,113.167 -0.5,-0.5 Z"/></g>
<g><path style="opacity:1" fill="#000000" d="M 228.5,106.5 C 198.167,106.5 167.833,106.5 137.5,106.5C 137.5,102.167 137.5,97.8333 137.5,93.5C 167.833,93.5 198.167,93.5 228.5,93.5C 228.5,97.8333 228.5,102.167 228.5,106.5 Z"/></g>
<g><path style="opacity:1" fill="#000000" d="M 137.5,106.5 C 137.5,110.833 137.5,115.167 137.5,119.5C 133.167,119.5 128.833,119.5 124.5,119.5C 124.5,115.167 124.5,110.833 124.5,106.5C 128.833,106.5 133.167,106.5 137.5,106.5 Z"/></g>
<g><path style="opacity:1" fill="#75a36c" d="M 137.5,106.5 C 167.833,106.5 198.167,106.5 228.5,106.5C 228.5,110.833 228.5,115.167 228.5,119.5C 198.167,119.5 167.833,119.5 137.5,119.5C 137.5,115.167 137.5,110.833 137.5,106.5 Z"/></g>
<g><path style="opacity:1" fill="#000000" d="M 228.5,106.5 C 232.833,106.5 237.167,106.5 241.5,106.5C 241.5,110.833 241.5,115.167 241.5,119.5C 237.167,119.5 232.833,119.5 228.5,119.5C 228.5,115.167 228.5,110.833 228.5,106.5 Z"/></g>
<g><path style="opacity:1" fill="#000000" d="M 124.5,119.5 C 124.5,123.833 124.5,128.167 124.5,132.5C 124.5,136.833 124.5,141.167 124.5,145.5C 124.5,149.833 124.5,154.167 124.5,158.5C 128.833,158.5 133.167,158.5 137.5,158.5C 137.5,162.833 137.5,167.167 137.5,171.5C 133.167,171.5 128.833,171.5 124.5,171.5C 124.5,180.167 124.5,188.833 124.5,197.5C 120.167,197.5 115.833,197.5 111.5,197.5C 111.5,201.833 111.5,206.167 111.5,210.5C 107.167,210.5 102.833,210.5 98.5,210.5C 98.5,201.833 98.5,193.167 98.5,184.5C 102.833,184.5 107.167,184.5 111.5,184.5C 111.5,162.833 111.5,141.167 111.5,119.5C 115.833,119.5 120.167,119.5 124.5,119.5 Z"/></g>
<g><path style="opacity:1" fill="#fefffe" d="M 124.5,119.5 C 128.833,119.5 133.167,119.5 137.5,119.5C 167.833,119.5 198.167,119.5 228.5,119.5C 232.833,119.5 237.167,119.5 241.5,119.5C 241.5,123.833 241.5,128.167 241.5,132.5C 202.5,132.5 163.5,132.5 124.5,132.5C 124.5,128.167 124.5,123.833 124.5,119.5 Z"/></g>
<g><path style="opacity:1" fill="#000000" d="M 241.5,119.5 C 245.833,119.5 250.167,119.5 254.5,119.5C 254.5,132.5 254.5,145.5 254.5,158.5C 250.167,158.5 245.833,158.5 241.5,158.5C 211.167,158.5 180.833,158.5 150.5,158.5C 146.167,158.5 141.833,158.5 137.5,158.5C 137.5,154.167 137.5,149.833 137.5,145.5C 172.167,145.5 206.833,145.5 241.5,145.5C 241.5,141.167 241.5,136.833 241.5,132.5C 241.5,128.167 241.5,123.833 241.5,119.5 Z"/></g>
<g><path style="opacity:1" fill="#1d68d1" d="M 124.5,132.5 C 163.5,132.5 202.5,132.5 241.5,132.5C 241.5,136.833 241.5,141.167 241.5,145.5C 206.833,145.5 172.167,145.5 137.5,145.5C 133.167,145.5 128.833,145.5 124.5,145.5C 124.5,141.167 124.5,136.833 124.5,132.5 Z"/></g>
<g><path style="opacity:1" fill="#75a36c" d="M 124.5,145.5 C 128.833,145.5 133.167,145.5 137.5,145.5C 137.5,149.833 137.5,154.167 137.5,158.5C 133.167,158.5 128.833,158.5 124.5,158.5C 124.5,154.167 124.5,149.833 124.5,145.5 Z"/></g>
<g><path style="opacity:1" fill="#8c8d8c" d="M 137.5,158.5 C 141.833,158.5 146.167,158.5 150.5,158.5C 150.5,162.833 150.5,167.167 150.5,171.5C 146.167,171.5 141.833,171.5 137.5,171.5C 137.5,167.167 137.5,162.833 137.5,158.5 Z"/></g>
<g><path style="opacity:1" fill="#b3b4b3" d="M 150.5,158.5 C 180.833,158.5 211.167,158.5 241.5,158.5C 241.5,162.833 241.5,167.167 241.5,171.5C 211.167,171.5 180.833,171.5 150.5,171.5C 150.5,167.167 150.5,162.833 150.5,158.5 Z"/></g>
<g><path style="opacity:1" fill="#8c8d8c" d="M 241.5,158.5 C 245.833,158.5 250.167,158.5 254.5,158.5C 254.5,162.833 254.5,167.167 254.5,171.5C 250.167,171.5 245.833,171.5 241.5,171.5C 241.5,167.167 241.5,162.833 241.5,158.5 Z"/></g>
<g><path style="opacity:1" fill="#000000" d="M 254.5,158.5 C 258.833,158.5 263.167,158.5 267.5,158.5C 267.5,175.833 267.5,193.167 267.5,210.5C 263.167,210.5 258.833,210.5 254.5,210.5C 254.5,206.167 254.5,201.833 254.5,197.5C 254.5,188.833 254.5,180.167 254.5,171.5C 254.5,167.167 254.5,162.833 254.5,158.5 Z"/></g>
<g><path style="opacity:1" fill="#8c8d8c" d="M 137.5,171.5 C 137.5,180.167 137.5,188.833 137.5,197.5C 133.167,197.5 128.833,197.5 124.5,197.5C 124.5,188.833 124.5,180.167 124.5,171.5C 128.833,171.5 133.167,171.5 137.5,171.5 Z"/></g>
<g><path style="opacity:1" fill="#b3b4b3" d="M 137.5,171.5 C 141.833,171.5 146.167,171.5 150.5,171.5C 150.5,180.167 150.5,188.833 150.5,197.5C 146.167,197.5 141.833,197.5 137.5,197.5C 137.5,188.833 137.5,180.167 137.5,171.5 Z"/></g>
<g><path style="opacity:1" fill="#000000" d="M 150.5,171.5 C 180.833,171.5 211.167,171.5 241.5,171.5C 241.5,180.167 241.5,188.833 241.5,197.5C 211.167,197.5 180.833,197.5 150.5,197.5C 150.5,188.833 150.5,180.167 150.5,171.5 Z"/></g>
<g><path style="opacity:1" fill="#b3b4b3" d="M 241.5,171.5 C 245.833,171.5 250.167,171.5 254.5,171.5C 254.5,180.167 254.5,188.833 254.5,197.5C 250.167,197.5 245.833,197.5 241.5,197.5C 241.5,188.833 241.5,180.167 241.5,171.5 Z"/></g>
<g><path style="opacity:1" fill="#75a36c" d="M 124.5,197.5 C 124.5,201.833 124.5,206.167 124.5,210.5C 120.167,210.5 115.833,210.5 111.5,210.5C 111.5,206.167 111.5,201.833 111.5,197.5C 115.833,197.5 120.167,197.5 124.5,197.5 Z"/></g>
<g><path style="opacity:1" fill="#000000" d="M 124.5,197.5 C 128.833,197.5 133.167,197.5 137.5,197.5C 137.5,201.833 137.5,206.167 137.5,210.5C 133.167,210.5 128.833,210.5 124.5,210.5C 124.5,206.167 124.5,201.833 124.5,197.5 Z"/></g>
<g><path style="opacity:1" fill="#8c8d8c" d="M 137.5,197.5 C 141.833,197.5 146.167,197.5 150.5,197.5C 150.5,201.833 150.5,206.167 150.5,210.5C 146.167,210.5 141.833,210.5 137.5,210.5C 137.5,206.167 137.5,201.833 137.5,197.5 Z"/></g>
<g><path style="opacity:1" fill="#b3b4b3" d="M 150.5,197.5 C 180.833,197.5 211.167,197.5 241.5,197.5C 241.5,201.833 241.5,206.167 241.5,210.5C 211.167,210.5 180.833,210.5 150.5,210.5C 150.5,206.167 150.5,201.833 150.5,197.5 Z"/></g>
<g><path style="opacity:1" fill="#8c8d8c" d="M 241.5,197.5 C 245.833,197.5 250.167,197.5 254.5,197.5C 254.5,201.833 254.5,206.167 254.5,210.5C 250.167,210.5 245.833,210.5 241.5,210.5C 241.5,206.167 241.5,201.833 241.5,197.5 Z"/></g>
<g><path style="opacity:1" fill="#000000" d="M 98.5,210.5 C 98.5,214.833 98.5,219.167 98.5,223.5C 94.1667,223.5 89.8333,223.5 85.5,223.5C 85.5,219.167 85.5,214.833 85.5,210.5C 89.8333,210.5 94.1667,210.5 98.5,210.5 Z"/></g>
<g><path style="opacity:1" fill="#fedc44" d="M 98.5,210.5 C 102.833,210.5 107.167,210.5 111.5,210.5C 111.5,214.833 111.5,219.167 111.5,223.5C 107.167,223.5 102.833,223.5 98.5,223.5C 98.5,219.167 98.5,214.833 98.5,210.5 Z"/></g>
<g><path style="opacity:1" fill="#000000" d="M 111.5,210.5 C 115.833,210.5 120.167,210.5 124.5,210.5C 124.5,253.833 124.5,297.167 124.5,340.5C 120.167,340.5 115.833,340.5 111.5,340.5C 111.5,305.833 111.5,271.167 111.5,236.5C 107.167,236.5 102.833,236.5 98.5,236.5C 98.5,232.167 98.5,227.833 98.5,223.5C 102.833,223.5 107.167,223.5 111.5,223.5C 111.5,219.167 111.5,214.833 111.5,210.5 Z"/></g>
<g><path style="opacity:1" fill="#75a36c" d="M 124.5,210.5 C 128.833,210.5 133.167,210.5 137.5,210.5C 137.5,214.833 137.5,219.167 137.5,223.5C 154.833,223.5 172.167,223.5 189.5,223.5C 189.5,227.833 189.5,232.167 189.5,236.5C 198.167,236.5 206.833,236.5 215.5,236.5C 215.5,232.167 215.5,227.833 215.5,223.5C 224.167,223.5 232.833,223.5 241.5,223.5C 241.5,245.167 241.5,266.833 241.5,288.5C 237.167,288.5 232.833,288.5 228.5,288.5C 228.5,275.5 228.5,262.5 228.5,249.5C 206.833,249.5 185.167,249.5 163.5,249.5C 163.5,262.5 163.5,275.5 163.5,288.5C 167.833,288.5 172.167,288.5 176.5,288.5C 176.5,292.833 176.5,297.167 176.5,301.5C 172.167,301.5 167.833,301.5 163.5,301.5C 163.5,314.5 163.5,327.5 163.5,340.5C 150.5,340.5 137.5,340.5 124.5,340.5C 124.5,297.167 124.5,253.833 124.5,210.5 Z"/></g>
<g><path style="opacity:1" fill="#000000" d="M 137.5,210.5 C 141.833,210.5 146.167,210.5 150.5,210.5C 180.833,210.5 211.167,210.5 241.5,210.5C 245.833,210.5 250.167,210.5 254.5,210.5C 254.5,236.5 254.5,262.5 254.5,288.5C 250.167,288.5 245.833,288.5 241.5,288.5C 241.5,266.833 241.5,245.167 241.5,223.5C 232.833,223.5 224.167,223.5 215.5,223.5C 215.5,227.833 215.5,232.167 215.5,236.5C 206.833,236.5 198.167,236.5 189.5,236.5C 189.5,232.167 189.5,227.833 189.5,223.5C 172.167,223.5 154.833,223.5 137.5,223.5C 137.5,219.167 137.5,214.833 137.5,210.5 Z"/></g>
<g><path style="opacity:1" fill="#a97033" d="M 228.5,288.5 C 224.167,288.5 219.833,288.5 215.5,288.5C 215.5,292.833 215.5,297.167 215.5,301.5C 215.5,305.833 215.5,310.167 215.5,314.5C 202.5,314.5 189.5,314.5 176.5,314.5C 176.5,310.167 176.5,305.833 176.5,301.5C 176.5,297.167 176.5,292.833 176.5,288.5C 172.167,288.5 167.833,288.5 163.5,288.5C 163.5,275.5 163.5,262.5 163.5,249.5C 185.167,249.5 206.833,249.5 228.5,249.5C 228.5,262.5 228.5,275.5 228.5,288.5 Z"/></g>
<g><path style="opacity:1" fill="#000000" d="M 176.5,262.5 C 189.5,262.5 202.5,262.5 215.5,262.5C 215.5,266.833 215.5,271.167 215.5,275.5C 202.5,275.5 189.5,275.5 176.5,275.5C 176.5,271.167 176.5,266.833 176.5,262.5 Z"/></g>
<g><path style="opacity:1" fill="#75a36c" d="M 228.5,288.5 C 228.5,292.833 228.5,297.167 228.5,301.5C 224.167,301.5 219.833,301.5 215.5,301.5C 215.5,297.167 215.5,292.833 215.5,288.5C 219.833,288.5 224.167,288.5 228.5,288.5 Z"/></g>
<g><path style="opacity:1" fill="#000000" d="M 228.5,288.5 C 232.833,288.5 237.167,288.5 241.5,288.5C 241.5,292.833 241.5,297.167 241.5,301.5C 237.167,301.5 232.833,301.5 228.5,301.5C 228.5,297.167 228.5,292.833 228.5,288.5 Z"/></g>
<g><path style="opacity:1" fill="#000000" d="M 176.5,301.5 C 176.5,305.833 176.5,310.167 176.5,314.5C 189.5,314.5 202.5,314.5 215.5,314.5C 215.5,318.833 215.5,323.167 215.5,327.5C 202.5,327.5 189.5,327.5 176.5,327.5C 176.5,331.833 176.5,336.167 176.5,340.5C 172.167,340.5 167.833,340.5 163.5,340.5C 163.5,327.5 163.5,314.5 163.5,301.5C 167.833,301.5 172.167,301.5 176.5,301.5 Z"/></g>
<g><path style="opacity:1" fill="#000000" d="M 215.5,301.5 C 219.833,301.5 224.167,301.5 228.5,301.5C 228.5,305.833 228.5,310.167 228.5,314.5C 224.167,314.5 219.833,314.5 215.5,314.5C 215.5,310.167 215.5,305.833 215.5,301.5 Z"/></g>
</svg>
